0
SECTION
2
HEADER
9
$INSUNITS
70
4
9
$ACADVER
1
AC1014
9
$HANDSEED
5
FFFF
0
ENDSEC
0
SECTION
2
TABLES
0
TABLE
2
VPORT
5
8
100
AcDbSymbolTable
0
ENDTAB
0
TABLE
2
LTYPE
5
5
100
AcDbSymbolTable
0
LTYPE
5
14
100
AcDbSymbolTableRecord
100
AcDbLinetypeTableRecord
2
BYBLOCK
70
0
0
LTYPE
5
15
100
AcDbSymbolTableRecord
100
AcDbLinetypeTableRecord
2
BYLAYER
70
0
0
ENDTAB
0
TABLE
2
LAYER
5
2
100
AcDbSymbolTable
70
2
0
LAYER
5
50
100
AcDbSymbolTableRecord
100
AcDbLayerTableRecord
2
0
70
0
6
CONTINUOUS
0
ENDTAB
0
TABLE
2
STYLE
5
3
100
AcDbSymbolTable
70
1
0
STYLE
5
11
100
AcDbSymbolTableRecord
100
AcDbTextStyleTableRecord
2
STANDARD
70
0
0
ENDTAB
0
TABLE
2
VIEW
5
6
100
AcDbSymbolTable
70
0
0
ENDTAB
0
TABLE
2
UCS
5
7
100
AcDbSymbolTable
70
0
0
ENDTAB
0
TABLE
2
APPID
5
9
100
AcDbSymbolTable
70
2
0
APPID
5
12
100
AcDbSymbolTableRecord
100
AcDbRegAppTableRecord
2
ACAD
70
0
0
ENDTAB
0
TABLE
2
DIMSTYLE
5
A
100
AcDbSymbolTable
70
1
0
ENDTAB
0
TABLE
2
BLOCK_RECORD
5
1
100
AcDbSymbolTable
70
1
0
BLOCK_RECORD
5
1F
100
AcDbSymbolTableRecord
100
AcDbBlockTableRecord
2
*MODEL_SPACE
0
BLOCK_RECORD
5
1B
100
AcDbSymbolTableRecord
100
AcDbBlockTableRecord
2
*PAPER_SPACE
0
ENDTAB
0
ENDSEC
0
SECTION
2
BLOCKS
0
BLOCK
5
20
100
AcDbEntity
100
AcDbBlockBegin
2
*MODEL_SPACE
0
ENDBLK
5
21
100
AcDbEntity
100
AcDbBlockEnd
0
BLOCK
5
1C
100
AcDbEntity
100
AcDbBlockBegin
2
*PAPER_SPACE
0
ENDBLK
5
1D
100
AcDbEntity
100
AcDbBlockEnd
0
ENDSEC
0
SECTION
2
ENTITIES
0
LWPOLYLINE
5
100
100
AcDbEntity
8
0
100
AcDbPolyline
90
24
70
1
43
0.0
10
30.403121102319133
20
49.000529832780003
10
30.403121102319048
20
45.552579729257673
10
11.749999999999988
20
45.552579729257737
10
11.749999999999988
20
45.750529832779989
10
-11.750000000000005
20
45.750529832779989
10
-11.750000000000004
20
45.552579729257737
10
-32.99073128872665
20
45.552579729257737
10
-32.99073128872665
20
40.744624524334881
10
-23.010897898253319
20
40.74462452433486
42
-0.79734440044806054
10
-22.576730013380629
20
38.84379254902256
42
0.22328685623729422
10
-50.472904235280048
20
4.5099637950441638
42
-0.34471835221902769
10
-51.443537009035438
20
3.7505298327800163
10
-53.749999999999993
20
3.7505298327800096
10
-53.749999999999993
20
-19.749470167219975
10
-51.443537009035438
20
-19.749470167219993
42
-0.34471835221902486
10
-50.472904235280055
20
-20.508904129484105
42
0.071886283237916196
10
-44.865959098762033
20
-34.287218533107271
42
-0.54046669522234236
10
-47.098762285728377
20
-38.782667528785538
42
0.75965272587021149
10
-50.55649266051671
20
-61.253747411105159
42
8.3839796322212335e-05
10
-50.552885842028701
20
-61.255375475665055
10
-60.403121102319126
20
-61.255375475665055
10
-60.403121102319126
20
-61.253747422250015
10
-60.403121102319119
20
19.000529832780011
42
-0.41421356237309509
10
-30.403121102319133
20
49.000529832779989
0
CIRCLE
5
101
100
AcDbEntity
8
0
100
AcDbCircle
10
-44.999999999999993
20
37.000529832779989
30
0
40
1.5000000000000033
210
-0
220
0
230
1
0
CIRCLE
5
102
100
AcDbEntity
8
0
100
AcDbCircle
10
-54.999999999999993
20
-32.999470167219968
30
0
40
1.4999999999999944
210
-0
220
0
230
1
0
LINE
5
103
100
AcDbEntity
8
0
100
AcDbLine
10
-0.061611707971031889
20
-57.59267693724415
30
1.3410864209358601e-45
11
74.998433483301781
21
-57.685927160123391
31
0
0
LINE
5
104
100
AcDbEntity
8
0
100
AcDbLine
10
104.08285197814074
20
-32.396627748771685
30
0
11
78.202505366992469
21
-56.429955530178418
31
0
0
LINE
5
105
100
AcDbEntity
8
0
100
AcDbLine
10
-8.8817841970012523e-15
20
41.593774874185797
30
1.3410864209358601e-45
11
69.992868392543429
21
41.699995139137329
31
0
0
LINE
5
106
100
AcDbEntity
8
0
100
AcDbLine
10
73.638467939415406
20
39.975157462210149
30
0
11
105.39655252456795
21
-25.37755176519812
31
0
0
ARC
5
107
100
AcDbEntity
8
0
100
AcDbCircle
10
100.00000149011612
20
-28.000000417232513
30
0
40
6.0000000000000124
210
0
220
0
230
1
100
AcDbArc
50
-47.119221261893813
51
25.917388715317401
0
ARC
5
108
100
AcDbEntity
8
0
100
AcDbCircle
10
75.004272484706547
20
-52.985930787139395
30
0
40
4.7000000000000117
210
0
220
0
230
1
100
AcDbArc
50
269.92881910146338
51
312.88077873810585
0
ARC
5
109
100
AcDbEntity
8
0
100
AcDbCircle
10
-2.042810365310288e-13
20
-7.999470167220033
30
1.3410864209358601e-45
40
49.593245041405822
210
0
220
-0
230
1
100
AcDbArc
50
89.999999999999773
51
269.92881910146355
0
ARC
5
110
100
AcDbEntity
8
0
100
AcDbCircle
10
70.000001043081284
20
37.000000551342964
30
0
40
4.6999999999999993
210
0
220
-0
230
1
100
AcDbArc
50
12.56207570046495
51
90.086951261580168
0
ENDSEC
0
SECTION
2
OBJECTS
0
DICTIONARY
5
C
100
AcDbDictionary
3
ACAD_GROUP
350
D
3
ACAD_MLINESTYLE
350
17
0
DICTIONARY
5
D
100
AcDbDictionary
0
DICTIONARY
5
1A
330
C
100
AcDbDictionary
0
DICTIONARY
5
17
100
AcDbDictionary
0
ENDSEC
0
EOF
